<svg width="683" height="683" viewBox="0 0 683 683" fill="none" xmlns="http://www.w3.org/2000/svg">
<path d="M194.133 104C179.867 108.4 169.467 124.267 171.067 139.334C172.267 151.2 179.2 161.334 190 167.067L195.333 170H426.667H658L663.333 167.067C675.6 160.534 681.867 150.134 682 136.667C682 123.067 675.6 112.267 663.6 105.734C659.6 103.467 646.4 103.334 428.667 103.067C301.733 102.934 196.267 103.334 194.133 104Z" fill="black"/>
<path d="M26.6667 308.133C14.6667 310.533 2.40008 323.2 0.533415 335.333C-0.799918 344.267 0.933415 352.533 5.73342 359.6C11.3334 367.867 18.9334 373.067 28.0001 374.667C32.9334 375.6 140.4 375.867 346 375.733C627.333 375.333 657.067 375.067 661.333 373.2C668.267 370 674.267 364.533 678.4 357.467C681.467 352.267 682 349.867 682 341.333C682 332.8 681.467 330.4 678.4 325.2C674.267 318.133 668.267 312.667 661.333 309.467C657.067 307.467 627.467 307.333 344.667 307.2C168 307.067 30.0001 307.467 26.6667 308.133Z" fill="black"/>
<path d="M330.533 513.867C300.933 524.4 299.333 564.267 328 577.2C333.867 579.867 335.867 580 494.133 580C672.4 580 661.6 580.534 671.733 570.8C679.333 563.334 682 556.934 682 546C681.867 539.067 681.2 535.2 679.067 531.2C674.933 523.467 665.2 515.334 658 513.467C648.933 511.2 337.067 511.467 330.533 513.867Z" fill="black"/>
</svg>
